<svg width="188" height="95" viewBox="0 0 188 95" fill="none" xmlns="http://www.w3.org/2000/svg">
<path d="M3.44 31.36C3.36 30.9867 3.32 30.2667 3.32 29.2C3.32 28.1333 3.52 27 3.92 25.8H4.28C4.25333 26.0933 4.24 26.3867 4.24 26.68C4.24 28.3067 4.73333 29.6667 5.72 30.76C6.70667 31.8267 8.01333 32.36 9.64 32.36C11.32 32.36 12.6933 31.8533 13.76 30.84C14.8533 29.8267 15.4 28.56 15.4 27.04C15.4 25.4933 14.88 24.24 13.84 23.28L6.16 16.16C4.72 14.8267 4 13.2133 4 11.32C4 9.42666 4.62667 7.81333 5.88 6.48C7.16 5.12 8.88 4.44 11.04 4.44C12.0533 4.44 13.2 4.57333 14.48 4.84H16.04V9.76H15.68C15.68 8.50667 15.24 7.50667 14.36 6.76C13.5067 6.01333 12.4 5.64 11.04 5.64C9.68 5.64 8.53333 6.09333 7.6 7C6.69333 7.90666 6.24 9.04 6.24 10.4C6.24 11.76 6.77333 12.9333 7.84 13.92L15.72 21.2C17.0533 22.4267 17.72 24.1067 17.72 26.24C17.72 28.3733 17.04 30.1333 15.68 31.52C14.32 32.88 12.5067 33.56 10.24 33.56C9.06667 33.56 7.81333 33.3733 6.48 33C5.17333 32.6533 4.16 32.1067 3.44 31.36ZM22.9434 32.6C23.6368 32.6 24.2234 32.36 24.7034 31.88C25.2101 31.3733 25.4768 30.7733 25.5034 30.08V7.68C25.5034 7.04 25.2501 6.50667 24.7434 6.08C24.2368 5.62666 23.6368 5.4 22.9434 5.4H22.4634L22.4234 5H30.5434C31.3701 5 32.2634 4.92 33.2234 4.76C34.2101 4.6 34.9034 4.44 35.3034 4.28V9.32H34.9034V8.6C34.9034 7.96 34.6768 7.41333 34.2234 6.96C33.7968 6.50667 33.2768 6.26667 32.6634 6.24H28.1034V18.6H35.7034C36.2368 18.5733 36.6901 18.3733 37.0634 18C37.4368 17.6267 37.6234 17.16 37.6234 16.6V16.04H38.0234V22.36H37.6234V21.76C37.6234 21.2267 37.4368 20.7733 37.0634 20.4C36.7168 20.0267 36.2768 19.8267 35.7434 19.8H28.1034V31.76H36.6234C38.5968 31.76 40.1034 31.32 41.1434 30.44C42.1834 29.56 43.0501 28.2533 43.7434 26.52H44.1434L41.8234 33H22.4234V32.6H22.9434ZM41.1603 38.4C41.8803 38.64 42.6003 38.76 43.3203 38.76C44.0136 38.76 44.747 38.6133 45.5203 38.32C46.2936 38.0267 47.0003 37.56 47.6403 36.92C48.2803 36.3067 48.8003 35.3733 49.2003 34.12C49.627 32.8667 49.8403 31.3867 49.8403 29.68V7.92C49.8136 7.22666 49.547 6.64 49.0403 6.16C48.5603 5.65333 47.9736 5.4 47.2803 5.4H46.7603V5H55.5203V5.4H55.0003C54.307 5.4 53.707 5.64 53.2003 6.12C52.7203 6.6 52.467 7.2 52.4403 7.92V29.8C52.4403 31.6133 52.1603 33.2 51.6003 34.56C51.0403 35.92 50.3336 36.9467 49.4803 37.64C47.8803 38.8933 46.107 39.52 44.1603 39.52C43.0136 39.52 41.9603 39.2933 41.0003 38.84L41.1603 38.4ZM61.8538 3.64C63.5871 2.92 65.2538 2.56 66.8538 2.56C68.1871 2.56 69.5604 3.05333 70.9738 4.04C71.7471 4.57333 72.6138 5.61333 73.5738 7.16C74.2138 8.22667 75.0271 10.16 76.0138 12.96L80.8938 26.8C82.0138 29.8933 83.1471 32.3467 84.2938 34.16C85.4671 36 86.5338 37.3733 87.4938 38.28C88.4538 39.2133 89.4538 39.8667 90.4938 40.24C91.5338 40.6133 92.3871 40.8 93.0538 40.8C93.7471 40.8 94.3604 40.7467 94.8938 40.64L94.9338 41.04C93.6538 41.4667 92.4004 41.68 91.1738 41.68C89.9471 41.68 88.7204 41.36 87.4938 40.72C86.2671 40.1067 85.1204 39.24 84.0538 38.12C81.7604 35.8 79.8137 32.2667 78.2137 27.52L76.6538 22.96H65.6938L62.9338 30.08C62.8004 30.4 62.7338 30.72 62.7338 31.04C62.7338 31.36 62.8671 31.7067 63.1338 32.08C63.4271 32.4267 63.8671 32.6 64.4538 32.6H64.7738V33H56.7337V32.6H57.0938C57.7338 32.6 58.3604 32.4133 58.9738 32.04C59.5871 31.64 60.0938 31.0533 60.4938 30.28L70.4138 6.52C68.9738 4.46667 67.1871 3.44 65.0538 3.44C64.0938 3.44 63.0671 3.64 61.9738 4.04L61.8538 3.64ZM66.1338 21.76H76.2538L73.0938 12.44C72.4804 10.6533 71.9204 9.25333 71.4138 8.24L66.1338 21.76ZM111.41 15.56C110.93 16.0667 110.384 16.44 109.77 16.68C112.384 17.0533 114.37 17.9867 115.73 19.48C117.09 20.9467 117.77 22.7467 117.77 24.88C117.77 27.4667 116.73 29.56 114.65 31.16C112.57 32.76 109.837 33.56 106.45 33.56C103.064 33.56 100.41 32.7333 98.4903 31.08C96.5703 29.4 95.6103 27.04 95.6103 24C95.6103 23.84 95.6103 23.68 95.6103 23.52L96.0503 23.44C96.5836 27.4133 98.237 29.9867 101.01 31.16V7.88C100.957 7.16 100.677 6.57333 100.17 6.12C99.6903 5.64 99.1036 5.4 98.4103 5.4H97.9303V5H104.65C107.157 5 109.157 5.57333 110.65 6.72C112.17 7.86667 112.93 9.37333 112.93 11.24C112.93 13.08 112.424 14.52 111.41 15.56ZM103.61 6.28V31.88C104.49 32.0133 105.504 32.08 106.65 32.08C109.21 32.08 111.197 31.4 112.61 30.04C114.05 28.6533 114.77 26.8667 114.77 24.68C114.77 23.5067 114.544 22.4667 114.09 21.56C113.664 20.6533 113.117 19.9467 112.45 19.44C110.69 18.08 108.21 17.4 105.01 17.4C104.984 17.4 104.97 17.4 104.97 17.4L104.93 17.04C104.957 17.04 104.97 17.04 104.97 17.04C106.33 17.04 107.49 16.6 108.45 15.72C109.437 14.8133 109.93 13.4267 109.93 11.56C109.93 8.04 107.997 6.28 104.13 6.28H103.61ZM121.85 32.6C122.543 32.6 123.13 32.36 123.61 31.88C124.116 31.3733 124.383 30.7733 124.41 30.08V7.68C124.41 7.04 124.156 6.50667 123.65 6.08C123.143 5.62666 122.543 5.4 121.85 5.4H121.37L121.33 5H129.45C130.276 5 131.17 4.92 132.13 4.76C133.116 4.6 133.81 4.44 134.21 4.28V9.32H133.81V8.6C133.81 7.96 133.583 7.41333 133.13 6.96C132.703 6.50667 132.183 6.26667 131.57 6.24H127.01V18.6H134.61C135.143 18.5733 135.596 18.3733 135.97 18C136.343 17.6267 136.53 17.16 136.53 16.6V16.04H136.93V22.36H136.53V21.76C136.53 21.2267 136.343 20.7733 135.97 20.4C135.623 20.0267 135.183 19.8267 134.65 19.8H127.01V31.76H135.53C137.503 31.76 139.01 31.32 140.05 30.44C141.09 29.56 141.956 28.2533 142.65 26.52H143.05L140.73 33H121.33V32.6H121.85ZM187.227 39.48C187.387 39.48 187.547 39.48 187.707 39.48V39.88C186.96 39.9867 186.12 40.04 185.187 40.04C184.28 40.04 183.147 39.84 181.787 39.44C180.453 39.04 179.24 38.2933 178.147 37.2C175.907 34.96 174.547 32.0533 174.067 28.48L171.627 10.68L163.307 29.48C162.56 31.1067 162.107 32.4667 161.947 33.56H161.547L151.187 11.04L149.427 30.92C149.373 31.3733 149.507 31.7733 149.827 32.12C150.173 32.4667 150.547 32.64 150.947 32.64H151.587V33H143.827V32.6H144.467C145.187 32.6 145.813 32.3867 146.347 31.96C146.907 31.5067 147.253 30.92 147.387 30.2L149.907 8.36C147.56 3.74667 144.747 1.44 141.467 1.44C141.173 1.44 140.867 1.45333 140.547 1.48V1.08C141.267 0.893331 141.853 0.799997 142.307 0.799997C142.76 0.799997 143.253 0.826664 143.787 0.879999C144.32 0.906665 144.947 1.02667 145.667 1.24C146.387 1.45333 147.067 1.77333 147.707 2.2C148.347 2.6 148.907 3.02666 149.387 3.48C149.867 3.90666 150.32 4.38666 150.747 4.92C151.467 5.88 152.04 6.8 152.467 7.68L162.107 28.56L172.867 4.44H173.227L176.947 28.12C177.507 31.8533 178.707 34.68 180.547 36.6C182.413 38.52 184.64 39.48 187.227 39.48ZM32 51.16C32.9067 50.5467 33.9867 50.0667 35.24 49.72C36.4933 49.3733 37.5067 49.2 38.28 49.2C39.0533 49.2 39.5467 49.2 39.76 49.2V49.6C38.5067 49.6533 37.3333 49.9067 36.24 50.36C35.1467 50.7867 34.24 51.2933 33.52 51.88C32.8267 52.44 32.1467 53.2 31.48 54.16C30.8133 55.0933 30.2933 55.8933 29.92 56.56C29.5733 57.2267 29.16 58.08 28.68 59.12L17.56 83.44C16.5733 85.6 16.08 86.9733 16.08 87.56H15.72L4.48 61.92C4.10667 61.0667 3.58667 60.44 2.92 60.04C2.28 59.6133 1.62667 59.4 0.96 59.4H0.64V59H9.64V59.4H9.28C8.48 59.4 7.94667 59.7733 7.68 60.52C7.62667 60.68 7.6 60.8667 7.6 61.08C7.6 61.2933 7.66667 61.56 7.8 61.88L16.16 82.84L26.08 59.12C27.6533 55.4133 29.6267 52.76 32 51.16ZM44.1925 86.6H44.7125V87H35.9525V86.6H36.4725C37.1658 86.6 37.7658 86.36 38.2725 85.88C38.7792 85.3733 39.0325 84.7733 39.0325 84.08V60.08L34.7525 60.32C32.0592 60.48 30.7125 61.4533 30.7125 63.24C30.7125 63.96 30.9392 64.5733 31.3925 65.08C31.8725 65.5867 32.6192 65.8667 33.6325 65.92V66.16C33.2592 66.24 32.8858 66.28 32.5125 66.28C31.3392 66.28 30.4592 65.8133 29.8725 64.88C29.5258 64.3467 29.3525 63.76 29.3525 63.12C29.3525 60.8533 31.0725 59.5333 34.5125 59.16C34.5392 59.16 35.8592 59.08 38.4725 58.92C41.1125 58.7333 43.1925 58.4933 44.7125 58.2L44.7925 58.6C43.6458 58.7867 42.8325 59.1733 42.3525 59.76C41.8725 60.3467 41.6325 61.16 41.6325 62.2V84.08C41.6592 84.7733 41.9125 85.3733 42.3925 85.88C42.8992 86.36 43.4992 86.6 44.1925 86.6ZM88.4344 93.08C86.301 93.7467 84.381 93.8667 82.6744 93.44C80.8877 92.96 79.341 92.2133 78.0344 91.2C76.781 90.1867 75.501 88.9733 74.1944 87.56L53.1144 64.2V84.2C53.141 85.1333 53.5544 85.8267 54.3544 86.28C54.7277 86.4933 55.1277 86.6 55.5544 86.6H56.3144V87H48.0744V86.6H48.8344C49.501 86.6 50.0744 86.3733 50.5544 85.92C51.0344 85.44 51.2744 84.8533 51.2744 84.16V62.2C51.141 62.0133 50.8744 61.6667 50.4744 61.16C50.0744 60.6267 49.741 60.2 49.4744 59.88C49.2077 59.56 48.8477 59.1467 48.3944 58.64C47.941 58.1067 47.5144 57.68 47.1144 57.36C46.741 57.04 46.301 56.6667 45.7944 56.24C44.9944 55.6267 44.141 55.1867 43.2344 54.92C42.3277 54.6533 41.5677 54.52 40.9544 54.52C40.3144 54.52 39.6344 54.6267 38.9144 54.84L38.7544 54.44C40.0344 53.9067 41.2744 53.64 42.4744 53.64C43.6477 53.64 44.661 53.7867 45.5144 54.08C46.3677 54.3467 47.2877 54.84 48.2744 55.56C49.261 56.28 50.061 56.9467 50.6744 57.56C51.3144 58.1733 52.0744 58.9733 52.9544 59.96L73.1144 82.36V61.84C73.0877 61.1467 72.8344 60.5733 72.3544 60.12C71.8744 59.64 71.301 59.4 70.6344 59.4H69.8744V59H78.1144V59.4H77.3944C76.7277 59.4 76.1544 59.64 75.6744 60.12C75.1944 60.5733 74.941 61.1333 74.9144 61.8V84.4C75.181 84.6933 75.5544 85.1333 76.0344 85.72C76.541 86.3067 76.8877 86.72 77.0744 86.96C77.2877 87.2 77.5944 87.5467 77.9944 88C78.3944 88.4533 78.7277 88.8 78.9944 89.04C79.2877 89.3067 79.6344 89.6267 80.0344 90C80.461 90.4 80.8477 90.7067 81.1944 90.92C81.5677 91.16 81.981 91.4267 82.4344 91.72C83.0744 92.0933 83.7944 92.3733 84.5944 92.56C85.421 92.7467 86.0877 92.84 86.5944 92.84C87.1277 92.84 87.6877 92.7867 88.2744 92.68L88.4344 93.08ZM75.8672 64.84C76.6405 62.5733 77.9339 61.0133 79.7472 60.16C81.5605 59.3067 84.7739 58.88 89.3872 58.88C90.3472 58.88 92.7739 58.92 96.6672 59C99.4939 59.08 101.987 59.6933 104.147 60.84C106.307 61.9867 107.987 63.6133 109.187 65.72C110.414 67.8 111.027 70.2267 111.027 73C111.027 77.1867 109.694 80.5733 107.027 83.16C104.387 85.72 100.934 87 96.6672 87H83.1072L83.1472 86.6H83.6272C84.2939 86.6 84.8672 86.3867 85.3472 85.96C85.8272 85.5067 86.1072 84.96 86.1872 84.32V60.2C82.8539 60.28 80.4939 60.8 79.1072 61.76C78.3872 62.2667 77.8405 62.76 77.4672 63.24C77.0939 63.6933 76.7072 64.28 76.3072 65L75.8672 64.84ZM88.7872 60.2V85.8H96.6672C100.054 85.8 102.787 84.6267 104.867 82.28C106.974 79.9333 108.027 76.84 108.027 73C108.027 70.4667 107.547 68.24 106.587 66.32C105.654 64.3733 104.321 62.8667 102.587 61.8C100.881 60.7333 98.9072 60.2 96.6672 60.2H88.7872ZM125.049 68.32C124.942 67.9733 124.889 67.68 124.889 67.44C124.889 67.1733 124.902 66.88 124.929 66.56C124.955 66.24 125.009 65.8 125.089 65.24C125.195 64.68 125.382 64.1333 125.649 63.6C125.915 63.04 126.222 62.5067 126.569 62C126.915 61.4933 127.355 61.0267 127.889 60.6C128.449 60.1733 129.062 59.8 129.729 59.48C131.142 58.7867 132.862 58.44 134.889 58.44C138.969 58.44 142.289 59.8 144.849 62.52C147.435 65.2133 148.729 68.6667 148.729 72.88C148.729 77.0933 147.209 80.6 144.169 83.4C141.129 86.1733 137.275 87.56 132.609 87.56C127.942 87.56 124.062 86.1733 120.969 83.4C117.902 80.6267 116.369 77.0267 116.369 72.6C116.369 69.7467 117.035 67.2133 118.369 65C119.702 62.7867 121.609 61.0533 124.089 59.8L124.329 60.16C122.595 61.3067 121.342 62.96 120.569 65.12C119.822 67.28 119.449 69.5733 119.449 72C119.449 76.5067 120.675 80.0267 123.129 82.56C125.582 85.0933 128.729 86.36 132.569 86.36C136.409 86.36 139.542 85.0933 141.969 82.56C144.422 80 145.649 76.64 145.649 72.48C145.649 68.88 144.675 65.84 142.729 63.36C140.809 60.88 138.089 59.64 134.569 59.64C132.995 59.64 131.569 59.92 130.289 60.48C127.969 61.4667 126.435 63.0933 125.689 65.36C125.475 66.0267 125.369 66.6 125.369 67.08C125.369 67.56 125.395 67.9467 125.449 68.24L125.049 68.32Z" fill="#D4B879"/>
</svg>
