<svg width="399" height="144" viewBox="0 0 399 144" fill="none" xmlns="http://www.w3.org/2000/svg">
<path d="M0.92 34.6C1.61333 34.6 2.2 34.36 2.68 33.88C3.18667 33.3733 3.45333 32.7733 3.48 32.08V9.68C3.48 9.04 3.22667 8.50667 2.72 8.08C2.21333 7.62666 1.61333 7.4 0.92 7.4H0.44L0.4 7H8.52C9.34667 7 10.24 6.92 11.2 6.76C12.1867 6.6 12.88 6.44 13.28 6.28V11.32H12.88V10.6C12.88 9.96 12.6533 9.41333 12.2 8.96C11.7733 8.50667 11.2533 8.26667 10.64 8.24H6.08V20.6H13.68C14.2133 20.5733 14.6667 20.3733 15.04 20C15.4133 19.6267 15.6 19.16 15.6 18.6V18.04H16V24.36H15.6V23.76C15.6 23.2267 15.4133 22.7733 15.04 22.4C14.6933 22.0267 14.2533 21.8267 13.72 21.8H6.08V33.76H14.6C16.5733 33.76 18.08 33.32 19.12 32.44C20.16 31.56 21.0267 30.2533 21.72 28.52H22.12L19.8 35H0.4V34.6H0.92ZM24.7369 33.36C24.6569 32.9867 24.6169 32.2667 24.6169 31.2C24.6169 30.1333 24.8169 29 25.2169 27.8H25.5769C25.5502 28.0933 25.5369 28.3867 25.5369 28.68C25.5369 30.3067 26.0302 31.6667 27.0169 32.76C28.0035 33.8267 29.3102 34.36 30.9369 34.36C32.6169 34.36 33.9902 33.8533 35.0569 32.84C36.1502 31.8267 36.6969 30.56 36.6969 29.04C36.6969 27.4933 36.1769 26.24 35.1369 25.28L27.4569 18.16C26.0169 16.8267 25.2969 15.2133 25.2969 13.32C25.2969 11.4267 25.9235 9.81333 27.1769 8.48C28.4569 7.12 30.1769 6.44 32.3369 6.44C33.3502 6.44 34.4969 6.57333 35.7769 6.84H37.3369V11.76H36.9769C36.9769 10.5067 36.5369 9.50667 35.6569 8.76C34.8035 8.01333 33.6969 7.64 32.3369 7.64C30.9769 7.64 29.8302 8.09333 28.8969 9C27.9902 9.90666 27.5369 11.04 27.5369 12.4C27.5369 13.76 28.0702 14.9333 29.1369 15.92L37.0169 23.2C38.3502 24.4267 39.0169 26.1067 39.0169 28.24C39.0169 30.3733 38.3369 32.1333 36.9769 33.52C35.6169 34.88 33.8035 35.56 31.5369 35.56C30.3635 35.56 29.1102 35.3733 27.7769 35C26.4702 34.6533 25.4569 34.1067 24.7369 33.36ZM64.8803 10.56C64.8803 9.92 64.6536 9.37333 64.2003 8.92C63.747 8.44 63.2136 8.18667 62.6003 8.16H55.0003V32.12C55.027 32.8133 55.2803 33.4 55.7603 33.88C56.267 34.36 56.867 34.6 57.5603 34.6H58.0803V35H49.3203V34.6H49.8403C50.5336 34.6 51.1203 34.36 51.6003 33.88C52.107 33.4 52.3736 32.8267 52.4003 32.16V8.16H44.8003C44.1603 8.18667 43.6136 8.44 43.1603 8.92C42.7336 9.37333 42.5203 9.92 42.5203 10.56V11.24L42.1203 11.28V6.24C42.5203 6.4 43.2136 6.56 44.2003 6.72C45.187 6.88 46.0936 6.96 46.9203 6.96H60.4403C61.747 6.96 62.827 6.86667 63.6803 6.68C64.5603 6.46667 65.0936 6.32 65.2803 6.24V11.28L64.8803 11.24V10.56ZM68.9669 34.6C69.6602 34.6 70.2469 34.36 70.7269 33.88C71.2335 33.3733 71.5002 32.7733 71.5269 32.08V9.88C71.5002 9.18667 71.2335 8.6 70.7269 8.12C70.2469 7.64 69.6602 7.4 68.9669 7.4H68.4469V7H77.2069V7.4H76.6869C75.9935 7.4 75.3935 7.64 74.8869 8.12C74.4069 8.6 74.1535 9.18667 74.1269 9.88V32.08C74.1269 32.7733 74.3802 33.3733 74.8869 33.88C75.3935 34.36 75.9935 34.6 76.6869 34.6H77.2069V35H68.4469V34.6H68.9669ZM82.4825 34.6C83.1758 34.6 83.7625 34.36 84.2425 33.88C84.7492 33.3733 85.0158 32.7733 85.0425 32.08V9.92C85.0158 9.22666 84.7492 8.64 84.2425 8.16C83.7625 7.65333 83.1758 7.4 82.4825 7.4H81.9625V7H90.7225V7.4H90.2025C89.2425 7.4 88.5092 7.81333 88.0025 8.64C87.7625 9.04 87.6425 9.46666 87.6425 9.92V33.76H93.3625C95.3358 33.76 96.8425 33.32 97.8825 32.44C98.9225 31.56 99.7892 30.2533 100.483 28.52H100.883L98.5625 35H81.9625V34.6H82.4825ZM107.122 10.48C109.976 7.78666 113.669 6.44 118.202 6.44C122.762 6.44 126.469 7.78666 129.322 10.48C132.176 13.1467 133.602 16.6533 133.602 21C133.602 25.3467 132.176 28.8667 129.322 31.56C126.469 34.2267 122.762 35.56 118.202 35.56C113.669 35.56 109.976 34.2267 107.122 31.56C104.269 28.8667 102.842 25.3467 102.842 21C102.842 16.6533 104.269 13.1467 107.122 10.48ZM109.282 30.68C111.549 33.1333 114.522 34.36 118.202 34.36C121.882 34.36 124.842 33.1333 127.082 30.68C129.349 28.2267 130.482 25 130.482 21C130.482 17 129.349 13.7733 127.082 11.32C124.842 8.86667 121.882 7.64 118.202 7.64C114.522 7.64 111.549 8.86667 109.282 11.32C107.042 13.7733 105.922 17 105.922 21C105.922 25 107.042 28.2267 109.282 30.68ZM134.566 38.24C135.286 38 135.766 37.6667 136.006 37.24C136.272 36.8133 136.406 36.4933 136.406 36.28C136.406 35.6133 136.139 34.9867 135.606 34.4C135.206 33.92 134.979 33.5867 134.926 33.4C134.846 33.0267 134.872 32.68 135.006 32.36C135.246 31.8267 135.686 31.56 136.326 31.56C137.126 31.56 137.672 31.9333 137.966 32.68C138.259 33.4 138.406 33.9867 138.406 34.44C138.406 35.8267 137.912 36.9067 136.926 37.68C136.259 38.24 135.499 38.5333 134.646 38.56L134.566 38.24ZM173.708 10.56C173.708 9.92 173.482 9.37333 173.028 8.92C172.575 8.44 172.042 8.18667 171.428 8.16H163.828V32.12C163.855 32.8133 164.108 33.4 164.588 33.88C165.095 34.36 165.695 34.6 166.388 34.6H166.908V35H158.148V34.6H158.668C159.362 34.6 159.948 34.36 160.428 33.88C160.935 33.4 161.202 32.8267 161.228 32.16V8.16H153.628C152.988 8.18667 152.442 8.44 151.988 8.92C151.562 9.37333 151.348 9.92 151.348 10.56V11.24L150.948 11.28V6.24C151.348 6.4 152.042 6.56 153.028 6.72C154.015 6.88 154.922 6.96 155.748 6.96H169.268C170.575 6.96 171.655 6.86667 172.508 6.68C173.388 6.46667 173.922 6.32 174.108 6.24V11.28L173.708 11.24V10.56ZM185.515 8.24H182.955V32.08C182.955 32.7733 183.195 33.3733 183.675 33.88C184.182 34.36 184.795 34.6 185.515 34.6H185.995L186.035 35H177.275V34.6H177.795C178.488 34.6 179.075 34.36 179.555 33.88C180.062 33.4 180.328 32.8133 180.355 32.12V9.92C180.328 9.22666 180.062 8.64 179.555 8.16C179.075 7.65333 178.488 7.4 177.795 7.4H177.275V7H188.075C190.502 7 192.408 7.68 193.795 9.04C195.182 10.3733 195.875 12.12 195.875 14.28C195.875 16.4133 195.208 18.2667 193.875 19.84C192.568 21.3867 190.968 22.16 189.075 22.16C189.475 22.3467 189.942 22.72 190.475 23.28C191.035 23.8133 191.528 24.3733 191.955 24.96C194.248 28.24 195.742 30.2667 196.435 31.04C197.128 31.7867 197.622 32.3067 197.915 32.6C198.208 32.8667 198.528 33.1333 198.875 33.4C199.222 33.6667 199.568 33.88 199.915 34.04C200.688 34.4133 201.515 34.6 202.395 34.6V35H200.195C199.048 35 197.982 34.8 196.995 34.4C196.008 33.9733 195.262 33.5467 194.755 33.12C194.275 32.6667 193.848 32.24 193.475 31.84C193.128 31.4133 192.142 30.0267 190.515 27.68C188.888 25.3333 187.942 24 187.675 23.68C187.408 23.3333 187.128 23 186.835 22.68C185.982 21.7733 185.128 21.32 184.275 21.32V20.92C184.488 20.9467 184.768 20.96 185.115 20.96C185.462 20.96 185.888 20.9467 186.395 20.92C189.702 20.84 191.782 19.4533 192.635 16.76C192.795 16.2267 192.875 15.7333 192.875 15.28C192.875 14.8 192.875 14.4933 192.875 14.36C192.822 12.5733 192.355 11.1333 191.475 10.04C190.595 8.94667 189.408 8.36 187.915 8.28C187.275 8.25333 186.475 8.24 185.515 8.24ZM229.374 34.6H229.694V35H220.694V34.6H221.054C221.614 34.6 222.028 34.4267 222.294 34.08C222.588 33.7067 222.734 33.36 222.734 33.04C222.734 32.72 222.681 32.4 222.574 32.08L220.014 25.28H209.214L206.534 32.12C206.428 32.44 206.374 32.76 206.374 33.08C206.374 33.3733 206.508 33.7067 206.774 34.08C207.068 34.4267 207.494 34.6 208.054 34.6H208.414V35H200.374V34.6H200.734C201.401 34.6 202.054 34.3867 202.694 33.96C203.334 33.5333 203.854 32.9067 204.254 32.08L213.294 10.56C214.281 8.4 214.774 7.02667 214.774 6.44H215.134L225.854 32.08C226.228 32.9067 226.734 33.5333 227.374 33.96C228.014 34.3867 228.681 34.6 229.374 34.6ZM209.694 24.08H219.534L214.734 11.24L209.694 24.08ZM245.171 7C249.438 7 252.891 8.29333 255.531 10.88C258.198 13.44 259.531 16.8133 259.531 21C259.531 25.1867 258.198 28.5733 255.531 31.16C252.891 33.72 249.438 35 245.171 35H231.611V34.6H232.131C232.824 34.6 233.411 34.36 233.891 33.88C234.398 33.3733 234.664 32.7733 234.691 32.08V9.68C234.691 9.04 234.424 8.50667 233.891 8.08C233.384 7.62666 232.798 7.4 232.131 7.4H231.651L231.611 7H245.171ZM237.291 8.2V33.8H245.171C247.411 33.8 249.384 33.2667 251.091 32.2C252.824 31.1333 254.158 29.64 255.091 27.72C256.051 25.7733 256.531 23.5333 256.531 21C256.531 17.16 255.478 14.0667 253.371 11.72C251.291 9.37333 248.558 8.2 245.171 8.2H237.291ZM263.615 34.6C264.309 34.6 264.895 34.36 265.375 33.88C265.882 33.3733 266.149 32.7733 266.175 32.08V9.88C266.149 9.18667 265.882 8.6 265.375 8.12C264.895 7.64 264.309 7.4 263.615 7.4H263.095V7H271.855V7.4H271.335C270.642 7.4 270.042 7.64 269.535 8.12C269.055 8.6 268.802 9.18667 268.775 9.88V32.08C268.775 32.7733 269.029 33.3733 269.535 33.88C270.042 34.36 270.642 34.6 271.335 34.6H271.855V35H263.095V34.6H263.615ZM289.19 37.44C290.016 37.1467 290.763 37.0933 291.43 37.28C292.736 37.6267 293.39 38.44 293.39 39.72C293.39 41 292.803 41.92 291.63 42.48C290.963 42.8 290.296 42.96 289.63 42.96C288.99 42.96 288.363 42.8667 287.75 42.68L287.79 42.28C288.75 42.28 289.59 42.08 290.31 41.68C291.03 41.28 291.39 40.6667 291.39 39.84C291.39 38.6667 290.71 38.08 289.35 38.08C288.923 38.08 288.483 38.1867 288.03 38.4L287.83 38L289.71 35.56C285.603 35.4267 282.256 34.04 279.67 31.4C277.11 28.7333 275.83 25.24 275.83 20.92C275.83 16.6 277.15 13.1067 279.79 10.44C282.456 7.77333 285.976 6.44 290.35 6.44C293.923 6.44 297.083 7.34667 299.83 9.16L300.63 14.8H300.27C299.683 12.5067 298.496 10.7467 296.71 9.52C294.923 8.26667 292.803 7.64 290.35 7.64C286.856 7.64 284.056 8.85333 281.95 11.28C279.87 13.7067 278.83 16.92 278.83 20.92C278.83 24.92 279.856 28.1467 281.91 30.6C283.99 33.0267 286.723 34.28 290.11 34.36C293.096 34.36 295.59 33.5467 297.59 31.92C299.75 30.16 301.056 27.2933 301.51 23.32H301.83L301.35 29.6C299.91 31.9733 297.923 33.6533 295.39 34.64C294.003 35.2 292.483 35.5067 290.83 35.56L289.19 37.44ZM320.9 2.64C322.02 2.64 322.767 2.18667 323.14 1.28H323.54C323.38 2.61333 322.914 3.54666 322.14 4.08C321.767 4.32 321.314 4.44 320.78 4.44C320.247 4.44 319.42 4.14666 318.3 3.56C317.207 2.97333 316.474 2.68 316.1 2.68C315.087 2.68 314.367 3.22667 313.94 4.32H313.54C313.674 3.28 313.967 2.45333 314.42 1.84C314.874 1.22666 315.42 0.919998 316.06 0.919998C316.727 0.919998 317.594 1.21333 318.66 1.8C319.727 2.36 320.474 2.64 320.9 2.64ZM332.46 34.6H332.78V35H323.78V34.6H324.14C324.7 34.6 325.114 34.4267 325.38 34.08C325.674 33.7067 325.82 33.36 325.82 33.04C325.82 32.72 325.767 32.4 325.66 32.08L323.1 25.28H312.3L309.62 32.12C309.514 32.44 309.46 32.76 309.46 33.08C309.46 33.3733 309.594 33.7067 309.86 34.08C310.154 34.4267 310.58 34.6 311.14 34.6H311.5V35H303.46V34.6H303.82C304.487 34.6 305.14 34.3867 305.78 33.96C306.42 33.5333 306.94 32.9067 307.34 32.08L316.38 10.56C317.367 8.4 317.86 7.02667 317.86 6.44H318.22L328.94 32.08C329.314 32.9067 329.82 33.5333 330.46 33.96C331.1 34.3867 331.767 34.6 332.46 34.6ZM312.78 24.08H322.62L317.82 11.24L312.78 24.08ZM336.771 10.48C339.624 7.78666 343.317 6.44 347.851 6.44C352.411 6.44 356.117 7.78666 358.971 10.48C361.824 13.1467 363.251 16.6533 363.251 21C363.251 25.3467 361.824 28.8667 358.971 31.56C356.117 34.2267 352.411 35.56 347.851 35.56C343.317 35.56 339.624 34.2267 336.771 31.56C333.917 28.8667 332.491 25.3467 332.491 21C332.491 16.6533 333.917 13.1467 336.771 10.48ZM338.931 30.68C341.197 33.1333 344.171 34.36 347.851 34.36C351.531 34.36 354.491 33.1333 356.731 30.68C358.997 28.2267 360.131 25 360.131 21C360.131 17 358.997 13.7733 356.731 11.32C354.491 8.86667 351.531 7.64 347.851 7.64C344.171 7.64 341.197 8.86667 338.931 11.32C336.691 13.7733 335.571 17 335.571 21C335.571 25 336.691 28.2267 338.931 30.68ZM377.717 34.6C378.41 34.6 378.997 34.36 379.477 33.88C379.984 33.3733 380.25 32.7733 380.277 32.08V9.68C380.277 9.04 380.024 8.50667 379.517 8.08C379.01 7.62666 378.41 7.4 377.717 7.4H377.237L377.197 7H388.917C389.744 7 390.637 6.92 391.597 6.76C392.584 6.6 393.277 6.44 393.677 6.28V11.32H393.277V10.6C393.277 9.96 393.05 9.41333 392.597 8.96C392.17 8.50667 391.65 8.26667 391.037 8.24H382.877V20.6H389.637C390.17 20.5733 390.624 20.3733 390.997 20C391.37 19.6267 391.557 19.16 391.557 18.6V18.04H391.957V24.36H391.557V23.76C391.557 23.2267 391.37 22.7733 390.997 22.4C390.65 22.0267 390.21 21.8267 389.677 21.8H382.877V33.76H388.597C390.57 33.76 392.077 33.32 393.117 32.44C394.157 31.56 395.024 30.2533 395.717 28.52H396.117L393.797 35H377.197V34.6H377.717ZM14.68 89.56C10.4667 89.5333 7.02667 88.1867 4.36 85.52C1.72 82.8533 0.4 79.3467 0.4 75C0.4 70.6267 1.72 67.1067 4.36 64.44C7.02667 61.7733 10.5467 60.44 14.92 60.44C18.4933 60.44 21.6533 61.3467 24.4 63.16L25.2 68.8H24.84C24.2533 66.5067 23.0667 64.7467 21.28 63.52C19.4933 62.2667 17.3733 61.64 14.92 61.64C11.4267 61.64 8.62667 62.8533 6.52 65.28C4.44 67.7067 3.4 70.92 3.4 74.92C3.4 78.92 4.42667 82.1467 6.48 84.6C8.56 87.0267 11.2933 88.28 14.68 88.36C17.6667 88.36 20.16 87.5467 22.16 85.92C24.32 84.16 25.6267 81.2933 26.08 77.32H26.4L25.92 83.6C23.4933 87.5733 19.7467 89.56 14.68 89.56ZM57.7906 61.4H57.1506C56.5906 61.4 56.0973 61.5867 55.6706 61.96C55.2706 62.3067 55.0573 62.7467 55.0306 63.28V79.12C55.0306 82.24 54.044 84.76 52.0706 86.68C50.0973 88.6 47.4706 89.56 44.1906 89.56C40.9106 89.56 38.244 88.6133 36.1906 86.72C34.164 84.8 33.1506 82.28 33.1506 79.16V63.4C33.1506 62.6 32.804 62.0133 32.1106 61.64C31.7906 61.48 31.4306 61.4 31.0306 61.4H30.3906V61H38.5106V61.4H37.8706C37.284 61.4 36.7906 61.5867 36.3906 61.96C35.9906 62.3067 35.7773 62.76 35.7506 63.32V78.6C35.7506 81.5067 36.524 83.8533 38.0706 85.64C39.644 87.4267 41.7373 88.32 44.3506 88.32C46.964 88.32 49.084 87.48 50.7106 85.8C52.3373 84.0933 53.1506 81.8667 53.1506 79.12V63.32C53.124 62.76 52.9106 62.3067 52.5106 61.96C52.1106 61.5867 51.6173 61.4 51.0306 61.4H50.3906V61H57.7906V61.4ZM62.7169 88.6C63.4102 88.6 63.9969 88.36 64.4769 87.88C64.9835 87.3733 65.2502 86.7733 65.2769 86.08V63.88C65.2502 63.1867 64.9835 62.6 64.4769 62.12C63.9969 61.64 63.4102 61.4 62.7169 61.4H62.1969V61H70.9569V61.4H70.4369C69.7435 61.4 69.1435 61.64 68.6369 62.12C68.1569 62.6 67.9035 63.1867 67.8769 63.88V86.08C67.8769 86.7733 68.1302 87.3733 68.6369 87.88C69.1435 88.36 69.7435 88.6 70.4369 88.6H70.9569V89H62.1969V88.6H62.7169ZM89.2725 61C93.5392 61 96.9925 62.2933 99.6325 64.88C102.299 67.44 103.633 70.8133 103.633 75C103.633 79.1867 102.299 82.5733 99.6325 85.16C96.9925 87.72 93.5392 89 89.2725 89H75.7125V88.6H76.2325C76.9258 88.6 77.5125 88.36 77.9925 87.88C78.4992 87.3733 78.7658 86.7733 78.7925 86.08V63.68C78.7925 63.04 78.5258 62.5067 77.9925 62.08C77.4858 61.6267 76.8992 61.4 76.2325 61.4H75.7525L75.7125 61H89.2725ZM81.3925 62.2V87.8H89.2725C91.5125 87.8 93.4858 87.2667 95.1925 86.2C96.9258 85.1333 98.2592 83.64 99.1925 81.72C100.153 79.7733 100.633 77.5333 100.633 75C100.633 71.16 99.5792 68.0667 97.4725 65.72C95.3925 63.3733 92.6592 62.2 89.2725 62.2H81.3925ZM132.812 88.6H133.132V89H124.132V88.6H124.492C125.052 88.6 125.465 88.4267 125.732 88.08C126.025 87.7067 126.172 87.36 126.172 87.04C126.172 86.72 126.119 86.4 126.012 86.08L123.452 79.28H112.652L109.972 86.12C109.865 86.44 109.812 86.76 109.812 87.08C109.812 87.3733 109.945 87.7067 110.212 88.08C110.505 88.4267 110.932 88.6 111.492 88.6H111.852V89H103.812V88.6H104.172C104.839 88.6 105.492 88.3867 106.132 87.96C106.772 87.5333 107.292 86.9067 107.692 86.08L116.732 64.56C117.719 62.4 118.212 61.0267 118.212 60.44H118.572L129.292 86.08C129.665 86.9067 130.172 87.5333 130.812 87.96C131.452 88.3867 132.119 88.6 132.812 88.6ZM113.132 78.08H122.972L118.172 65.24L113.132 78.08ZM148.608 61C152.875 61 156.328 62.2933 158.968 64.88C161.635 67.44 162.968 70.8133 162.968 75C162.968 79.1867 161.635 82.5733 158.968 85.16C156.328 87.72 152.875 89 148.608 89H135.048V88.6H135.568C136.262 88.6 136.848 88.36 137.328 87.88C137.835 87.3733 138.102 86.7733 138.128 86.08V63.68C138.128 63.04 137.862 62.5067 137.328 62.08C136.822 61.6267 136.235 61.4 135.568 61.4H135.088L135.048 61H148.608ZM140.728 62.2V87.8H148.608C150.848 87.8 152.822 87.2667 154.528 86.2C156.262 85.1333 157.595 83.64 158.528 81.72C159.488 79.7733 159.968 77.5333 159.968 75C159.968 71.16 158.915 68.0667 156.808 65.72C154.728 63.3733 151.995 62.2 148.608 62.2H140.728ZM171.185 64.48C174.038 61.7867 177.731 60.44 182.265 60.44C186.825 60.44 190.531 61.7867 193.385 64.48C196.238 67.1467 197.665 70.6533 197.665 75C197.665 79.3467 196.238 82.8667 193.385 85.56C190.531 88.2267 186.825 89.56 182.265 89.56C177.731 89.56 174.038 88.2267 171.185 85.56C168.331 82.8667 166.905 79.3467 166.905 75C166.905 70.6533 168.331 67.1467 171.185 64.48ZM173.345 84.68C175.611 87.1333 178.585 88.36 182.265 88.36C185.945 88.36 188.905 87.1333 191.145 84.68C193.411 82.2267 194.545 79 194.545 75C194.545 71 193.411 67.7733 191.145 65.32C188.905 62.8667 185.945 61.64 182.265 61.64C178.585 61.64 175.611 62.8667 173.345 65.32C171.105 67.7733 169.985 71 169.985 75C169.985 79 171.105 82.2267 173.345 84.68ZM212.131 88.6C212.824 88.6 213.411 88.36 213.891 87.88C214.398 87.3733 214.664 86.7733 214.691 86.08V63.68C214.691 63.04 214.438 62.5067 213.931 62.08C213.424 61.6267 212.824 61.4 212.131 61.4H211.651L211.611 61H223.331C224.158 61 225.051 60.92 226.011 60.76C226.998 60.6 227.691 60.44 228.091 60.28V65.32H227.691V64.6C227.691 63.96 227.464 63.4133 227.011 62.96C226.584 62.5067 226.064 62.2667 225.451 62.24H217.291V74.6H224.051C224.584 74.5733 225.038 74.3733 225.411 74C225.784 73.6267 225.971 73.16 225.971 72.6V72.04H226.371V78.36H225.971V77.76C225.971 77.2267 225.784 76.7733 225.411 76.4C225.064 76.0267 224.624 75.8267 224.091 75.8H217.291V87.76H223.011C224.984 87.76 226.491 87.32 227.531 86.44C228.571 85.56 229.438 84.2533 230.131 82.52H230.531L228.211 89H211.611V88.6H212.131ZM268.297 88.6H268.937V89H260.257V88.64H260.857C261.31 88.64 261.697 88.4667 262.017 88.12C262.337 87.7733 262.47 87.3733 262.417 86.92L260.617 66.8L252.217 85.48C251.47 87.1067 251.017 88.4667 250.857 89.56H250.457L240.217 67.36L238.497 86.92C238.444 87.3467 238.577 87.7467 238.897 88.12C239.217 88.4667 239.604 88.64 240.057 88.64H240.657V89H232.897V88.6H233.537C234.284 88.6 234.924 88.3733 235.457 87.92C236.017 87.4667 236.35 86.8533 236.457 86.08L239.457 60.44H239.857L251.017 84.56L261.937 60.44H262.297L265.377 86.08C265.484 86.8533 265.817 87.4667 266.377 87.92C266.937 88.3733 267.577 88.6 268.297 88.6ZM296.203 89.56C291.99 89.5333 288.55 88.1867 285.883 85.52C283.243 82.8533 281.923 79.3467 281.923 75C281.923 70.6267 283.243 67.1067 285.883 64.44C288.55 61.7733 292.07 60.44 296.443 60.44C300.017 60.44 303.177 61.3467 305.923 63.16L306.723 68.8H306.363C305.777 66.5067 304.59 64.7467 302.803 63.52C301.017 62.2667 298.897 61.64 296.443 61.64C292.95 61.64 290.15 62.8533 288.043 65.28C285.963 67.7067 284.923 70.92 284.923 74.92C284.923 78.92 285.95 82.1467 288.003 84.6C290.083 87.0267 292.817 88.28 296.203 88.36C299.19 88.36 301.683 87.5467 303.683 85.92C305.843 84.16 307.15 81.2933 307.603 77.32H307.923L307.443 83.6C305.017 87.5733 301.27 89.56 296.203 89.56ZM338.554 88.6H338.874V89H329.874V88.6H330.234C330.794 88.6 331.207 88.4267 331.474 88.08C331.767 87.7067 331.914 87.36 331.914 87.04C331.914 86.72 331.861 86.4 331.754 86.08L329.194 79.28H318.394L315.714 86.12C315.607 86.44 315.554 86.76 315.554 87.08C315.554 87.3733 315.687 87.7067 315.954 88.08C316.247 88.4267 316.674 88.6 317.234 88.6H317.594V89H309.554V88.6H309.914C310.581 88.6 311.234 88.3867 311.874 87.96C312.514 87.5333 313.034 86.9067 313.434 86.08L322.474 64.56C323.461 62.4 323.954 61.0267 323.954 60.44H324.314L335.034 86.08C335.407 86.9067 335.914 87.5333 336.554 87.96C337.194 88.3867 337.861 88.6 338.554 88.6ZM318.874 78.08H328.714L323.914 65.24L318.874 78.08ZM354.351 61C358.617 61 362.071 62.2933 364.711 64.88C367.377 67.44 368.711 70.8133 368.711 75C368.711 79.1867 367.377 82.5733 364.711 85.16C362.071 87.72 358.617 89 354.351 89H340.791V88.6H341.311C342.004 88.6 342.591 88.36 343.071 87.88C343.577 87.3733 343.844 86.7733 343.871 86.08V63.68C343.871 63.04 343.604 62.5067 343.071 62.08C342.564 61.6267 341.977 61.4 341.311 61.4H340.831L340.791 61H354.351ZM346.471 62.2V87.8H354.351C356.591 87.8 358.564 87.2667 360.271 86.2C362.004 85.1333 363.337 83.64 364.271 81.72C365.231 79.7733 365.711 77.5333 365.711 75C365.711 71.16 364.657 68.0667 362.551 65.72C360.471 63.3733 357.737 62.2 354.351 62.2H346.471ZM397.89 88.6H398.21V89H389.21V88.6H389.57C390.13 88.6 390.543 88.4267 390.81 88.08C391.103 87.7067 391.25 87.36 391.25 87.04C391.25 86.72 391.197 86.4 391.09 86.08L388.53 79.28H377.73L375.05 86.12C374.943 86.44 374.89 86.76 374.89 87.08C374.89 87.3733 375.023 87.7067 375.29 88.08C375.583 88.4267 376.01 88.6 376.57 88.6H376.93V89H368.89V88.6H369.25C369.917 88.6 370.57 88.3867 371.21 87.96C371.85 87.5333 372.37 86.9067 372.77 86.08L381.81 64.56C382.797 62.4 383.29 61.0267 383.29 60.44H383.65L394.37 86.08C394.743 86.9067 395.25 87.5333 395.89 87.96C396.53 88.3867 397.197 88.6 397.89 88.6ZM378.21 78.08H388.05L383.25 65.24L378.21 78.08ZM14.68 143.56C10.4667 143.533 7.02667 142.187 4.36 139.52C1.72 136.853 0.4 133.347 0.4 129C0.4 124.627 1.72 121.107 4.36 118.44C7.02667 115.773 10.5467 114.44 14.92 114.44C18.4933 114.44 21.6533 115.347 24.4 117.16L25.2 122.8H24.84C24.2533 120.507 23.0667 118.747 21.28 117.52C19.4933 116.267 17.3733 115.64 14.92 115.64C11.4267 115.64 8.62667 116.853 6.52 119.28C4.44 121.707 3.4 124.92 3.4 128.92C3.4 132.92 4.42667 136.147 6.48 138.6C8.56 141.027 11.2933 142.28 14.68 142.36C17.6667 142.36 20.16 141.547 22.16 139.92C24.32 138.16 25.6267 135.293 26.08 131.32H26.4L25.92 137.6C23.4933 141.573 19.7467 143.56 14.68 143.56ZM34.2706 118.48C37.124 115.787 40.8173 114.44 45.3506 114.44C49.9106 114.44 53.6173 115.787 56.4706 118.48C59.324 121.147 60.7506 124.653 60.7506 129C60.7506 133.347 59.324 136.867 56.4706 139.56C53.6173 142.227 49.9106 143.56 45.3506 143.56C40.8173 143.56 37.124 142.227 34.2706 139.56C31.4173 136.867 29.9906 133.347 29.9906 129C29.9906 124.653 31.4173 121.147 34.2706 118.48ZM36.4306 138.68C38.6973 141.133 41.6706 142.36 45.3506 142.36C49.0306 142.36 51.9906 141.133 54.2306 138.68C56.4973 136.227 57.6306 133 57.6306 129C57.6306 125 56.4973 121.773 54.2306 119.32C51.9906 116.867 49.0306 115.64 45.3506 115.64C41.6706 115.64 38.6973 116.867 36.4306 119.32C34.1906 121.773 33.0706 125 33.0706 129C33.0706 133 34.1906 136.227 36.4306 138.68ZM72.1556 116.24H69.5956V140.08C69.5956 140.773 69.8356 141.373 70.3156 141.88C70.8223 142.36 71.4356 142.6 72.1556 142.6H72.6356L72.6756 143H63.9156V142.6H64.4356C65.129 142.6 65.7156 142.36 66.1956 141.88C66.7023 141.4 66.969 140.813 66.9956 140.12V117.92C66.969 117.227 66.7023 116.64 66.1956 116.16C65.7156 115.653 65.129 115.4 64.4356 115.4H63.9156V115H74.7156C77.1423 115 79.049 115.68 80.4356 117.04C81.8223 118.373 82.5156 120.12 82.5156 122.28C82.5156 124.413 81.849 126.267 80.5156 127.84C79.209 129.387 77.609 130.16 75.7156 130.16C76.1156 130.347 76.5823 130.72 77.1156 131.28C77.6756 131.813 78.169 132.373 78.5956 132.96C80.889 136.24 82.3823 138.267 83.0756 139.04C83.769 139.787 84.2623 140.307 84.5556 140.6C84.849 140.867 85.169 141.133 85.5156 141.4C85.8623 141.667 86.209 141.88 86.5556 142.04C87.329 142.413 88.1556 142.6 89.0356 142.6V143H86.8356C85.689 143 84.6223 142.8 83.6356 142.4C82.649 141.973 81.9023 141.547 81.3956 141.12C80.9156 140.667 80.489 140.24 80.1156 139.84C79.769 139.413 78.7823 138.027 77.1556 135.68C75.529 133.333 74.5823 132 74.3156 131.68C74.049 131.333 73.769 131 73.4756 130.68C72.6223 129.773 71.769 129.32 70.9156 129.32V128.92C71.129 128.947 71.409 128.96 71.7556 128.96C72.1023 128.96 72.529 128.947 73.0356 128.92C76.3423 128.84 78.4223 127.453 79.2756 124.76C79.4356 124.227 79.5156 123.733 79.5156 123.28C79.5156 122.8 79.5156 122.493 79.5156 122.36C79.4623 120.573 78.9956 119.133 78.1156 118.04C77.2356 116.947 76.049 116.36 74.5556 116.28C73.9156 116.253 73.1156 116.24 72.1556 116.24ZM109.958 118.56C109.958 117.92 109.732 117.373 109.278 116.92C108.825 116.44 108.292 116.187 107.678 116.16H100.078V140.12C100.105 140.813 100.358 141.4 100.838 141.88C101.345 142.36 101.945 142.6 102.638 142.6H103.158V143H94.3984V142.6H94.9184C95.6118 142.6 96.1984 142.36 96.6784 141.88C97.1851 141.4 97.4518 140.827 97.4784 140.16V116.16H89.8784C89.2384 116.187 88.6918 116.44 88.2384 116.92C87.8118 117.373 87.5984 117.92 87.5984 118.56V119.24L87.1984 119.28V114.24C87.5984 114.4 88.2918 114.56 89.2784 114.72C90.2651 114.88 91.1718 114.96 91.9984 114.96H105.518C106.825 114.96 107.905 114.867 108.758 114.68C109.638 114.467 110.172 114.32 110.358 114.24V119.28L109.958 119.24V118.56ZM114.045 142.6C114.738 142.6 115.325 142.36 115.805 141.88C116.312 141.373 116.578 140.773 116.605 140.08V117.68C116.605 117.04 116.352 116.507 115.845 116.08C115.338 115.627 114.738 115.4 114.045 115.4H113.565L113.525 115H125.245C126.072 115 126.965 114.92 127.925 114.76C128.912 114.6 129.605 114.44 130.005 114.28V119.32H129.605V118.6C129.605 117.96 129.378 117.413 128.925 116.96C128.498 116.507 127.978 116.267 127.365 116.24H119.205V128.6H125.965C126.498 128.573 126.952 128.373 127.325 128C127.698 127.627 127.885 127.16 127.885 126.6V126.04H128.285V132.36H127.885V131.76C127.885 131.227 127.698 130.773 127.325 130.4C126.978 130.027 126.538 129.827 126.005 129.8H119.205V141.76H124.925C126.898 141.76 128.405 141.32 129.445 140.44C130.485 139.56 131.352 138.253 132.045 136.52H132.445L130.125 143H113.525V142.6H114.045ZM139.091 142.64C138.744 142.987 138.318 143.16 137.811 143.16C137.304 143.16 136.878 142.987 136.531 142.64C136.184 142.293 136.011 141.867 136.011 141.36C136.011 140.853 136.184 140.427 136.531 140.08C136.878 139.733 137.304 139.56 137.811 139.56C138.318 139.56 138.744 139.733 139.091 140.08C139.438 140.427 139.611 140.853 139.611 141.36C139.611 141.867 139.438 142.293 139.091 142.64Z" fill="black"/>
</svg>
