<svg width="27" height="37" viewBox="0 0 27 37" fill="none" xmlns="http://www.w3.org/2000/svg">
<path d="M22.7812 6.9375H18.5625V5.78125C18.5625 4.86128 18.2958 3.97899 17.8211 3.32847C17.3464 2.67796 16.7026 2.3125 16.0312 2.3125H10.9688C10.2974 2.3125 9.65359 2.67796 9.17889 3.32847C8.70418 3.97899 8.4375 4.86128 8.4375 5.78125V6.9375H4.21875C3.99497 6.9375 3.78036 7.05932 3.62213 7.27616C3.4639 7.493 3.375 7.78709 3.375 8.09375C3.375 8.40041 3.4639 8.6945 3.62213 8.91134C3.78036 9.12818 3.99497 9.25 4.21875 9.25H5.0625V30.0625C5.0625 30.6758 5.24029 31.264 5.55676 31.6977C5.87322 32.1314 6.30245 32.375 6.75 32.375H20.25C20.6976 32.375 21.1268 32.1314 21.4432 31.6977C21.7597 31.264 21.9375 30.6758 21.9375 30.0625V9.25H22.7812C23.005 9.25 23.2196 9.12818 23.3779 8.91134C23.5361 8.6945 23.625 8.40041 23.625 8.09375C23.625 7.78709 23.5361 7.493 23.3779 7.27616C23.2196 7.05932 23.005 6.9375 22.7812 6.9375ZM10.125 5.78125C10.125 5.47459 10.2139 5.1805 10.3721 4.96366C10.5304 4.74682 10.745 4.625 10.9688 4.625H16.0312C16.255 4.625 16.4696 4.74682 16.6279 4.96366C16.7861 5.1805 16.875 5.47459 16.875 5.78125V6.9375H10.125V5.78125ZM20.25 30.0625H6.75V9.25H20.25V30.0625ZM11.8125 15.0312V24.2812C11.8125 24.5879 11.7236 24.882 11.5654 25.0988C11.4071 25.3157 11.1925 25.4375 10.9688 25.4375C10.745 25.4375 10.5304 25.3157 10.3721 25.0988C10.2139 24.882 10.125 24.5879 10.125 24.2812V15.0312C10.125 14.7246 10.2139 14.4305 10.3721 14.2137C10.5304 13.9968 10.745 13.875 10.9688 13.875C11.1925 13.875 11.4071 13.9968 11.5654 14.2137C11.7236 14.4305 11.8125 14.7246 11.8125 15.0312ZM16.875 15.0312V24.2812C16.875 24.5879 16.7861 24.882 16.6279 25.0988C16.4696 25.3157 16.255 25.4375 16.0312 25.4375C15.8075 25.4375 15.5929 25.3157 15.4346 25.0988C15.2764 24.882 15.1875 24.5879 15.1875 24.2812V15.0312C15.1875 14.7246 15.2764 14.4305 15.4346 14.2137C15.5929 13.9968 15.8075 13.875 16.0312 13.875C16.255 13.875 16.4696 13.9968 16.6279 14.2137C16.7861 14.4305 16.875 14.7246 16.875 15.0312Z" fill="#AA0808"/>
</svg>
